<svg xmlns="http://www.w3.org/2000/svg" xmlns:xlink="http://www.w3.org/1999/xlink" width="1000" zoomAndPan="magnify" viewBox="0 0 750 149.999998" height="200" preserveAspectRatio="xMidYMid meet" version="1.2"><defs><clipPath id="76e2c6172e"><path d="M 211.15625 56.554688 L 259 56.554688 L 259 104.554688 L 211.15625 104.554688 Z M 211.15625 56.554688 "/></clipPath><clipPath id="9384a5ad04"><path d="M 233.917969 60.425781 L 236.03125 60.425781 L 236.03125 68.019531 L 233.917969 68.019531 Z M 233.917969 60.425781 "/></clipPath><clipPath id="15f1a199c5"><path d="M 236.03125 61.484375 L 236.03125 66.957031 C 236.03125 67.539062 235.558594 68.011719 234.972656 68.011719 C 234.390625 68.011719 233.917969 67.539062 233.917969 66.957031 L 233.917969 61.484375 C 233.917969 60.898438 234.390625 60.425781 234.972656 60.425781 C 235.558594 60.425781 236.03125 60.898438 236.03125 61.484375 Z M 236.03125 61.484375 "/></clipPath><clipPath id="00f34a585d"><path d="M 221 65 L 228 65 L 228 72 L 221 72 Z M 221 65 "/></clipPath><clipPath id="d84e305a10"><path d="M 222.472656 65.527344 L 227.839844 70.894531 L 226.34375 72.390625 L 220.976562 67.023438 Z M 222.472656 65.527344 "/></clipPath><clipPath id="145296024b"><path d="M 223.21875 66.277344 L 227.089844 70.144531 C 227.503906 70.558594 227.503906 71.226562 227.089844 71.640625 C 226.675781 72.054688 226.007812 72.054688 225.59375 71.640625 L 221.722656 67.769531 C 221.3125 67.359375 221.3125 66.6875 221.722656 66.277344 C 222.136719 65.863281 222.808594 65.863281 223.21875 66.277344 Z M 223.21875 66.277344 "/></clipPath><clipPath id="44d0c34654"><path d="M 244 88 L 251 88 L 251 95 L 244 95 Z M 244 88 "/></clipPath><clipPath id="7ea1d714a0"><path d="M 245.539062 87.777344 L 250.90625 93.144531 L 249.410156 94.640625 L 244.042969 89.273438 Z M 245.539062 87.777344 "/></clipPath><clipPath id="433d34e36b"><path d="M 246.285156 88.523438 L 250.15625 92.394531 C 250.566406 92.808594 250.566406 93.476562 250.15625 93.890625 C 249.742188 94.300781 249.074219 94.300781 248.660156 93.890625 L 244.789062 90.019531 C 244.378906 89.605469 244.378906 88.9375 244.789062 88.523438 C 245.203125 88.113281 245.871094 88.113281 246.285156 88.523438 Z M 246.285156 88.523438 "/></clipPath><clipPath id="431c13acc1"><path d="M 233.917969 92.996094 L 236.03125 92.996094 L 236.03125 100.589844 L 233.917969 100.589844 Z M 233.917969 92.996094 "/></clipPath><clipPath id="41f78f99da"><path d="M 236.03125 94.054688 L 236.03125 99.523438 C 236.03125 100.109375 235.558594 100.582031 234.972656 100.582031 C 234.390625 100.582031 233.917969 100.109375 233.917969 99.523438 L 233.917969 94.054688 C 233.917969 93.46875 234.390625 92.996094 234.972656 92.996094 C 235.558594 92.996094 236.03125 93.46875 236.03125 94.054688 Z M 236.03125 94.054688 "/></clipPath><clipPath id="5f8f940acd"><path d="M 214.917969 79.320312 L 222.511719 79.320312 L 222.511719 81.4375 L 214.917969 81.4375 Z M 214.917969 79.320312 "/></clipPath><clipPath id="eab6334a0d"><path d="M 215.976562 79.320312 L 221.449219 79.320312 C 222.03125 79.320312 222.507812 79.792969 222.507812 80.378906 C 222.507812 80.960938 222.03125 81.4375 221.449219 81.4375 L 215.976562 81.4375 C 215.390625 81.4375 214.917969 80.960938 214.917969 80.378906 C 214.917969 79.792969 215.390625 79.320312 215.976562 79.320312 Z M 215.976562 79.320312 "/></clipPath><clipPath id="2ec6686884"><path d="M 247.113281 79.320312 L 254.703125 79.320312 L 254.703125 81.4375 L 247.113281 81.4375 Z M 247.113281 79.320312 "/></clipPath><clipPath id="636260766e"><path d="M 248.167969 79.320312 L 253.640625 79.320312 C 254.226562 79.320312 254.699219 79.792969 254.699219 80.378906 C 254.699219 80.960938 254.226562 81.4375 253.640625 81.4375 L 248.167969 81.4375 C 247.585938 81.4375 247.113281 80.960938 247.113281 80.378906 C 247.113281 79.792969 247.585938 79.320312 248.167969 79.320312 Z M 248.167969 79.320312 "/></clipPath></defs><g id="44f5382bd9"><g clip-rule="nonzero" clip-path="url(#76e2c6172e)"><path style=" stroke:none;fill-rule:evenodd;fill:#1f446f;fill-opacity:1;" d="M 236.65625 84.582031 L 232.117188 80.042969 L 227.570312 89.128906 Z M 239.085938 84.773438 L 246.238281 70.472656 L 231.933594 77.625 L 224.785156 91.925781 Z M 233.65625 61.855469 C 221.929688 62.246094 212.855469 75.945312 217.519531 86.816406 C 220.796875 95.910156 231.996094 101.578125 241.074219 97.941406 C 249.632812 95.011719 255.484375 85.28125 253.101562 76.355469 C 251.261719 67.859375 243.007812 61.152344 234.199219 61.84375 L 233.871094 61.851562 Z M 258.789062 80.382812 C 258.789062 93.535156 248.128906 104.199219 234.972656 104.199219 C 221.820312 104.199219 211.15625 93.535156 211.15625 80.382812 C 211.15625 67.230469 221.820312 56.566406 234.972656 56.566406 C 248.128906 56.566406 258.789062 67.230469 258.789062 80.382812 Z M 258.789062 80.382812 "/></g><g clip-rule="nonzero" clip-path="url(#9384a5ad04)"><g clip-rule="nonzero" clip-path="url(#15f1a199c5)"><path style=" stroke:none;fill-rule:nonzero;fill:#1f446f;fill-opacity:1;" d="M 236.03125 60.425781 L 236.03125 68.011719 L 233.917969 68.011719 L 233.917969 60.425781 Z M 236.03125 60.425781 "/></g></g><g clip-rule="nonzero" clip-path="url(#00f34a585d)"><g clip-rule="nonzero" clip-path="url(#d84e305a10)"><g clip-rule="nonzero" clip-path="url(#145296024b)"><path style=" stroke:none;fill-rule:nonzero;fill:#1f446f;fill-opacity:1;" d="M 222.472656 65.527344 L 227.835938 70.890625 L 226.339844 72.386719 L 220.976562 67.023438 Z M 222.472656 65.527344 "/></g></g></g><g clip-rule="nonzero" clip-path="url(#44d0c34654)"><g clip-rule="nonzero" clip-path="url(#7ea1d714a0)"><g clip-rule="nonzero" clip-path="url(#433d34e36b)"><path style=" stroke:none;fill-rule:nonzero;fill:#1f446f;fill-opacity:1;" d="M 245.539062 87.777344 L 250.902344 93.140625 L 249.40625 94.636719 L 244.042969 89.273438 Z M 245.539062 87.777344 "/></g></g></g><g clip-rule="nonzero" clip-path="url(#431c13acc1)"><g clip-rule="nonzero" clip-path="url(#41f78f99da)"><path style=" stroke:none;fill-rule:nonzero;fill:#1f446f;fill-opacity:1;" d="M 236.03125 92.996094 L 236.03125 100.578125 L 233.917969 100.578125 L 233.917969 92.996094 Z M 236.03125 92.996094 "/></g></g><g clip-rule="nonzero" clip-path="url(#5f8f940acd)"><g clip-rule="nonzero" clip-path="url(#eab6334a0d)"><path style=" stroke:none;fill-rule:nonzero;fill:#1f446f;fill-opacity:1;" d="M 214.917969 79.320312 L 222.503906 79.320312 L 222.503906 81.4375 L 214.917969 81.4375 Z M 214.917969 79.320312 "/></g></g><g clip-rule="nonzero" clip-path="url(#2ec6686884)"><g clip-rule="nonzero" clip-path="url(#636260766e)"><path style=" stroke:none;fill-rule:nonzero;fill:#1f446f;fill-opacity:1;" d="M 247.113281 79.320312 L 254.695312 79.320312 L 254.695312 81.4375 L 247.113281 81.4375 Z M 247.113281 79.320312 "/></g></g><g style="fill:#1f446f;fill-opacity:1;"><g transform="translate(24.437175, 103.054183)"><path style="stroke:none" d="M 12.765625 0 C 10.828125 0 9.34375 -0.507812 8.3125 -1.53125 C 7.289062 -2.5625 6.78125 -4.046875 6.78125 -5.984375 L 6.78125 -56.0625 C 6.78125 -57.988281 7.289062 -59.46875 8.3125 -60.5 C 9.34375 -61.53125 10.828125 -62.046875 12.765625 -62.046875 L 44.171875 -62.046875 C 45.640625 -62.046875 46.769531 -61.660156 47.5625 -60.890625 C 48.351562 -60.128906 48.75 -59.046875 48.75 -57.640625 C 48.75 -56.171875 48.351562 -55.039062 47.5625 -54.25 C 46.769531 -53.457031 45.640625 -53.0625 44.171875 -53.0625 L 17.59375 -53.0625 L 17.59375 -35.984375 L 42.234375 -35.984375 C 43.765625 -35.984375 44.910156 -35.601562 45.671875 -34.84375 C 46.429688 -34.082031 46.8125 -32.96875 46.8125 -31.5 C 46.8125 -30.03125 46.429688 -28.914062 45.671875 -28.15625 C 44.910156 -27.394531 43.765625 -27.015625 42.234375 -27.015625 L 17.59375 -27.015625 L 17.59375 -8.96875 L 44.171875 -8.96875 C 45.640625 -8.96875 46.769531 -8.585938 47.5625 -7.828125 C 48.351562 -7.066406 48.75 -5.953125 48.75 -4.484375 C 48.75 -3.015625 48.351562 -1.898438 47.5625 -1.140625 C 46.769531 -0.378906 45.640625 0 44.171875 0 Z M 12.765625 0 "/></g></g><g style="fill:#1f446f;fill-opacity:1;"><g transform="translate(76.975796, 103.054183)"><path style="stroke:none" d="M 8.71875 0.4375 C 7.425781 0.4375 6.351562 0.0703125 5.5 -0.65625 C 4.644531 -1.394531 4.203125 -2.347656 4.171875 -3.515625 C 4.148438 -4.691406 4.632812 -5.925781 5.625 -7.21875 L 19.890625 -24.8125 L 19.890625 -19.625 L 6.515625 -36.078125 C 5.453125 -37.367188 4.953125 -38.597656 5.015625 -39.765625 C 5.078125 -40.941406 5.53125 -41.894531 6.375 -42.625 C 7.226562 -43.363281 8.300781 -43.734375 9.59375 -43.734375 C 10.9375 -43.734375 12.0625 -43.5 12.96875 -43.03125 C 13.882812 -42.5625 14.722656 -41.828125 15.484375 -40.828125 L 26.046875 -27.28125 L 22.171875 -27.28125 L 32.828125 -40.828125 C 33.648438 -41.828125 34.5 -42.5625 35.375 -43.03125 C 36.257812 -43.5 37.34375 -43.734375 38.625 -43.734375 C 39.976562 -43.734375 41.066406 -43.351562 41.890625 -42.59375 C 42.710938 -41.832031 43.132812 -40.863281 43.15625 -39.6875 C 43.1875 -38.507812 42.675781 -37.273438 41.625 -35.984375 L 28.34375 -19.71875 L 28.34375 -24.640625 L 42.59375 -7.21875 C 43.644531 -5.988281 44.140625 -4.785156 44.078125 -3.609375 C 44.023438 -2.429688 43.570312 -1.460938 42.71875 -0.703125 C 41.875 0.0546875 40.773438 0.4375 39.421875 0.4375 C 38.128906 0.4375 37.039062 0.203125 36.15625 -0.265625 C 35.28125 -0.734375 34.429688 -1.46875 33.609375 -2.46875 L 22.171875 -16.890625 L 25.875 -16.890625 L 14.515625 -2.46875 C 13.753906 -1.53125 12.929688 -0.8125 12.046875 -0.3125 C 11.171875 0.1875 10.0625 0.4375 8.71875 0.4375 Z M 8.71875 0.4375 "/></g></g><g style="fill:#1f446f;fill-opacity:1;"><g transform="translate(125.026198, 103.054183)"><path style="stroke:none" d="M 11.171875 16.546875 C 9.410156 16.546875 8.0625 16.078125 7.125 15.140625 C 6.1875 14.203125 5.71875 12.820312 5.71875 11 L 5.71875 -38.1875 C 5.71875 -40.007812 6.1875 -41.390625 7.125 -42.328125 C 8.0625 -43.265625 9.382812 -43.734375 11.09375 -43.734375 C 12.851562 -43.734375 14.203125 -43.265625 15.140625 -42.328125 C 16.078125 -41.390625 16.546875 -40.007812 16.546875 -38.1875 L 16.546875 -31.328125 L 15.578125 -33.96875 C 16.453125 -36.957031 18.253906 -39.359375 20.984375 -41.171875 C 23.710938 -42.992188 26.894531 -43.90625 30.53125 -43.90625 C 34.289062 -43.90625 37.59375 -42.992188 40.4375 -41.171875 C 43.28125 -39.359375 45.492188 -36.796875 47.078125 -33.484375 C 48.660156 -30.171875 49.453125 -26.195312 49.453125 -21.5625 C 49.453125 -16.988281 48.660156 -13.015625 47.078125 -9.640625 C 45.492188 -6.265625 43.289062 -3.664062 40.46875 -1.84375 C 37.65625 -0.03125 34.34375 0.875 30.53125 0.875 C 26.957031 0.875 23.820312 -0.015625 21.125 -1.796875 C 18.425781 -3.585938 16.601562 -5.921875 15.65625 -8.796875 L 16.71875 -8.796875 L 16.71875 11 C 16.71875 12.820312 16.234375 14.203125 15.265625 15.140625 C 14.296875 16.078125 12.929688 16.546875 11.171875 16.546875 Z M 27.453125 -7.484375 C 29.628906 -7.484375 31.535156 -8.007812 33.171875 -9.0625 C 34.816406 -10.113281 36.09375 -11.679688 37 -13.765625 C 37.914062 -15.847656 38.375 -18.445312 38.375 -21.5625 C 38.375 -26.25 37.375 -29.75 35.375 -32.0625 C 33.382812 -34.382812 30.742188 -35.546875 27.453125 -35.546875 C 25.285156 -35.546875 23.378906 -35.03125 21.734375 -34 C 20.085938 -32.976562 18.8125 -31.425781 17.90625 -29.34375 C 17 -27.257812 16.546875 -24.664062 16.546875 -21.5625 C 16.546875 -16.925781 17.539062 -13.421875 19.53125 -11.046875 C 21.53125 -8.671875 24.171875 -7.484375 27.453125 -7.484375 Z M 27.453125 -7.484375 "/></g></g><g style="fill:#1f446f;fill-opacity:1;"><g transform="translate(177.828838, 103.054183)"><path style="stroke:none" d="M 20.421875 0.875 C 15.546875 0.875 11.875 -0.515625 9.40625 -3.296875 C 6.945312 -6.085938 5.71875 -10.179688 5.71875 -15.578125 L 5.71875 -57.203125 C 5.71875 -59.015625 6.1875 -60.390625 7.125 -61.328125 C 8.0625 -62.273438 9.410156 -62.75 11.171875 -62.75 C 12.929688 -62.75 14.296875 -62.273438 15.265625 -61.328125 C 16.234375 -60.390625 16.71875 -59.015625 16.71875 -57.203125 L 16.71875 -16.109375 C 16.71875 -13.410156 17.289062 -11.414062 18.4375 -10.125 C 19.582031 -8.832031 21.207031 -8.1875 23.3125 -8.1875 C 23.789062 -8.1875 24.234375 -8.195312 24.640625 -8.21875 C 25.046875 -8.25 25.457031 -8.296875 25.875 -8.359375 C 26.695312 -8.472656 27.253906 -8.25 27.546875 -7.6875 C 27.835938 -7.132812 27.984375 -6.007812 27.984375 -4.3125 C 27.984375 -2.84375 27.6875 -1.695312 27.09375 -0.875 C 26.507812 -0.0507812 25.546875 0.441406 24.203125 0.609375 C 23.609375 0.671875 22.988281 0.726562 22.34375 0.78125 C 21.707031 0.84375 21.066406 0.875 20.421875 0.875 Z M 20.421875 0.875 "/></g></g><g style="fill:#1f446f;fill-opacity:1;"><g transform="translate(265.790594, 103.054183)"><path style="stroke:none" d="M 11.359375 0.703125 C 9.535156 0.703125 8.140625 0.21875 7.171875 -0.75 C 6.203125 -1.71875 5.71875 -3.109375 5.71875 -4.921875 L 5.71875 -38.1875 C 5.71875 -40.007812 6.1875 -41.390625 7.125 -42.328125 C 8.0625 -43.265625 9.382812 -43.734375 11.09375 -43.734375 C 12.789062 -43.734375 14.109375 -43.265625 15.046875 -42.328125 C 15.984375 -41.390625 16.453125 -40.007812 16.453125 -38.1875 L 16.453125 -32.640625 L 15.578125 -32.640625 C 16.398438 -36.160156 18.015625 -38.832031 20.421875 -40.65625 C 22.828125 -42.476562 26.023438 -43.5625 30.015625 -43.90625 C 31.242188 -44.03125 32.222656 -43.722656 32.953125 -42.984375 C 33.691406 -42.253906 34.117188 -41.125 34.234375 -39.59375 C 34.347656 -38.132812 34.007812 -36.945312 33.21875 -36.03125 C 32.425781 -35.125 31.238281 -34.582031 29.65625 -34.40625 L 27.71875 -34.234375 C 24.144531 -33.878906 21.445312 -32.773438 19.625 -30.921875 C 17.800781 -29.078125 16.890625 -26.484375 16.890625 -23.140625 L 16.890625 -4.921875 C 16.890625 -3.109375 16.421875 -1.71875 15.484375 -0.75 C 14.546875 0.21875 13.171875 0.703125 11.359375 0.703125 Z M 11.359375 0.703125 "/></g></g><g style="fill:#1f446f;fill-opacity:1;"><g transform="translate(299.584255, 103.054183)"><path style="stroke:none" d="M 26.921875 0.875 C 22.054688 0.875 17.863281 -0.03125 14.34375 -1.84375 C 10.820312 -3.664062 8.109375 -6.25 6.203125 -9.59375 C 4.296875 -12.9375 3.34375 -16.894531 3.34375 -21.46875 C 3.34375 -25.925781 4.265625 -29.828125 6.109375 -33.171875 C 7.960938 -36.515625 10.515625 -39.140625 13.765625 -41.046875 C 17.023438 -42.953125 20.738281 -43.90625 24.90625 -43.90625 C 27.957031 -43.90625 30.695312 -43.40625 33.125 -42.40625 C 35.5625 -41.414062 37.644531 -39.976562 39.375 -38.09375 C 41.101562 -36.21875 42.421875 -33.945312 43.328125 -31.28125 C 44.242188 -28.613281 44.703125 -25.609375 44.703125 -22.265625 C 44.703125 -21.210938 44.332031 -20.40625 43.59375 -19.84375 C 42.863281 -19.289062 41.828125 -19.015625 40.484375 -19.015625 L 12.234375 -19.015625 L 12.234375 -25.34375 L 36.953125 -25.34375 L 35.546875 -24.03125 C 35.546875 -26.726562 35.148438 -28.984375 34.359375 -30.796875 C 33.566406 -32.617188 32.421875 -34.015625 30.921875 -34.984375 C 29.429688 -35.953125 27.570312 -36.4375 25.34375 -36.4375 C 22.875 -36.4375 20.773438 -35.863281 19.046875 -34.71875 C 17.316406 -33.570312 16 -31.957031 15.09375 -29.875 C 14.1875 -27.789062 13.734375 -25.3125 13.734375 -22.4375 L 13.734375 -21.828125 C 13.734375 -17.015625 14.859375 -13.421875 17.109375 -11.046875 C 19.367188 -8.671875 22.703125 -7.484375 27.109375 -7.484375 C 28.628906 -7.484375 30.34375 -7.671875 32.25 -8.046875 C 34.15625 -8.429688 35.957031 -9.09375 37.65625 -10.03125 C 38.894531 -10.738281 39.984375 -11.046875 40.921875 -10.953125 C 41.859375 -10.867188 42.601562 -10.53125 43.15625 -9.9375 C 43.71875 -9.351562 44.054688 -8.632812 44.171875 -7.78125 C 44.296875 -6.9375 44.132812 -6.070312 43.6875 -5.1875 C 43.25 -4.3125 42.503906 -3.550781 41.453125 -2.90625 C 39.398438 -1.613281 37.035156 -0.660156 34.359375 -0.046875 C 31.691406 0.566406 29.210938 0.875 26.921875 0.875 Z M 26.921875 0.875 "/></g></g><g style="fill:#1f446f;fill-opacity:1;"><g transform="translate(347.282629, 103.054183)"><path style="stroke:none" d=""/></g></g><g style="fill:#1f446f;fill-opacity:1;"><g transform="translate(371.131829, 103.054183)"><path style="stroke:none" d="M 28.15625 0.875 C 25.570312 0.875 22.988281 0.679688 20.40625 0.296875 C 17.832031 -0.078125 15.398438 -0.660156 13.109375 -1.453125 C 10.828125 -2.242188 8.773438 -3.226562 6.953125 -4.40625 C 5.898438 -5.101562 5.164062 -5.953125 4.75 -6.953125 C 4.34375 -7.953125 4.210938 -8.9375 4.359375 -9.90625 C 4.503906 -10.875 4.882812 -11.722656 5.5 -12.453125 C 6.113281 -13.179688 6.890625 -13.632812 7.828125 -13.8125 C 8.765625 -13.988281 9.789062 -13.726562 10.90625 -13.03125 C 13.488281 -11.5 16.21875 -10.378906 19.09375 -9.671875 C 21.96875 -8.972656 24.988281 -8.625 28.15625 -8.625 C 32.789062 -8.625 36.164062 -9.398438 38.28125 -10.953125 C 40.394531 -12.503906 41.453125 -14.515625 41.453125 -16.984375 C 41.453125 -19.035156 40.703125 -20.644531 39.203125 -21.8125 C 37.703125 -22.988281 35.132812 -23.960938 31.5 -24.734375 L 21.828125 -26.75 C 16.253906 -27.925781 12.101562 -29.90625 9.375 -32.6875 C 6.644531 -35.476562 5.28125 -39.160156 5.28125 -43.734375 C 5.28125 -46.609375 5.863281 -49.21875 7.03125 -51.5625 C 8.207031 -53.914062 9.863281 -55.941406 12 -57.640625 C 14.144531 -59.335938 16.695312 -60.640625 19.65625 -61.546875 C 22.625 -62.460938 25.898438 -62.921875 29.484375 -62.921875 C 33.003906 -62.921875 36.347656 -62.476562 39.515625 -61.59375 C 42.679688 -60.71875 45.523438 -59.429688 48.046875 -57.734375 C 48.984375 -57.085938 49.613281 -56.289062 49.9375 -55.34375 C 50.257812 -54.40625 50.332031 -53.484375 50.15625 -52.578125 C 49.976562 -51.671875 49.566406 -50.894531 48.921875 -50.25 C 48.273438 -49.601562 47.46875 -49.21875 46.5 -49.09375 C 45.539062 -48.976562 44.441406 -49.273438 43.203125 -49.984375 C 41.035156 -51.210938 38.835938 -52.09375 36.609375 -52.625 C 34.378906 -53.15625 31.972656 -53.421875 29.390625 -53.421875 C 26.691406 -53.421875 24.375 -53.035156 22.4375 -52.265625 C 20.5 -51.503906 19.015625 -50.429688 17.984375 -49.046875 C 16.960938 -47.671875 16.453125 -46.046875 16.453125 -44.171875 C 16.453125 -42.066406 17.15625 -40.378906 18.5625 -39.109375 C 19.976562 -37.847656 22.382812 -36.867188 25.78125 -36.171875 L 35.375 -34.140625 C 41.1875 -32.910156 45.515625 -30.972656 48.359375 -28.328125 C 51.203125 -25.691406 52.625 -22.175781 52.625 -17.78125 C 52.625 -14.957031 52.050781 -12.398438 50.90625 -10.109375 C 49.757812 -7.828125 48.113281 -5.863281 45.96875 -4.21875 C 43.832031 -2.582031 41.269531 -1.320312 38.28125 -0.4375 C 35.289062 0.4375 31.914062 0.875 28.15625 0.875 Z M 28.15625 0.875 "/></g></g><g style="fill:#1f446f;fill-opacity:1;"><g transform="translate(426.22257, 103.054183)"><path style="stroke:none" d="M 25.4375 0.875 C 21.625 0.875 18.441406 0.234375 15.890625 -1.046875 C 13.335938 -2.335938 11.441406 -4.226562 10.203125 -6.71875 C 8.972656 -9.21875 8.359375 -12.316406 8.359375 -16.015625 L 8.359375 -34.765625 L 3.78125 -34.765625 C 2.375 -34.765625 1.289062 -35.128906 0.53125 -35.859375 C -0.226562 -36.585938 -0.609375 -37.597656 -0.609375 -38.890625 C -0.609375 -40.242188 -0.226562 -41.269531 0.53125 -41.96875 C 1.289062 -42.675781 2.375 -43.03125 3.78125 -43.03125 L 8.359375 -43.03125 L 8.359375 -51.046875 C 8.359375 -52.859375 8.84375 -54.234375 9.8125 -55.171875 C 10.78125 -56.109375 12.144531 -56.578125 13.90625 -56.578125 C 15.664062 -56.578125 17.015625 -56.109375 17.953125 -55.171875 C 18.890625 -54.234375 19.359375 -52.859375 19.359375 -51.046875 L 19.359375 -43.03125 L 28.6875 -43.03125 C 30.09375 -43.03125 31.175781 -42.675781 31.9375 -41.96875 C 32.707031 -41.269531 33.09375 -40.242188 33.09375 -38.890625 C 33.09375 -37.597656 32.707031 -36.585938 31.9375 -35.859375 C 31.175781 -35.128906 30.09375 -34.765625 28.6875 -34.765625 L 19.359375 -34.765625 L 19.359375 -16.625 C 19.359375 -13.8125 19.972656 -11.703125 21.203125 -10.296875 C 22.441406 -8.890625 24.4375 -8.1875 27.1875 -8.1875 C 28.1875 -8.1875 29.066406 -8.273438 29.828125 -8.453125 C 30.585938 -8.628906 31.265625 -8.742188 31.859375 -8.796875 C 32.554688 -8.859375 33.140625 -8.640625 33.609375 -8.140625 C 34.078125 -7.640625 34.3125 -6.628906 34.3125 -5.109375 C 34.3125 -3.929688 34.117188 -2.882812 33.734375 -1.96875 C 33.359375 -1.0625 32.675781 -0.4375 31.6875 -0.09375 C 30.914062 0.144531 29.914062 0.363281 28.6875 0.5625 C 27.457031 0.769531 26.375 0.875 25.4375 0.875 Z M 25.4375 0.875 "/></g></g><g style="fill:#1f446f;fill-opacity:1;"><g transform="translate(460.016256, 103.054183)"><path style="stroke:none" d="M 19.890625 0.875 C 16.773438 0.875 14 0.273438 11.5625 -0.921875 C 9.132812 -2.128906 7.226562 -3.757812 5.84375 -5.8125 C 4.46875 -7.863281 3.78125 -10.179688 3.78125 -12.765625 C 3.78125 -15.929688 4.601562 -18.4375 6.25 -20.28125 C 7.894531 -22.132812 10.5625 -23.46875 14.25 -24.28125 C 17.945312 -25.101562 22.90625 -25.515625 29.125 -25.515625 L 33.53125 -25.515625 L 33.53125 -19.1875 L 29.21875 -19.1875 C 25.582031 -19.1875 22.675781 -19.007812 20.5 -18.65625 C 18.332031 -18.300781 16.789062 -17.695312 15.875 -16.84375 C 14.96875 -16 14.515625 -14.8125 14.515625 -13.28125 C 14.515625 -11.351562 15.1875 -9.769531 16.53125 -8.53125 C 17.882812 -7.300781 19.765625 -6.6875 22.171875 -6.6875 C 24.109375 -6.6875 25.820312 -7.140625 27.3125 -8.046875 C 28.8125 -8.960938 30 -10.210938 30.875 -11.796875 C 31.757812 -13.378906 32.203125 -15.195312 32.203125 -17.25 L 32.203125 -27.375 C 32.203125 -30.300781 31.554688 -32.410156 30.265625 -33.703125 C 28.984375 -34.992188 26.816406 -35.640625 23.765625 -35.640625 C 22.054688 -35.640625 20.21875 -35.429688 18.25 -35.015625 C 16.289062 -34.609375 14.226562 -33.90625 12.0625 -32.90625 C 10.945312 -32.382812 9.960938 -32.238281 9.109375 -32.46875 C 8.253906 -32.707031 7.59375 -33.191406 7.125 -33.921875 C 6.65625 -34.660156 6.421875 -35.46875 6.421875 -36.34375 C 6.421875 -37.21875 6.65625 -38.082031 7.125 -38.9375 C 7.59375 -39.789062 8.382812 -40.421875 9.5 -40.828125 C 12.195312 -41.941406 14.789062 -42.734375 17.28125 -43.203125 C 19.78125 -43.671875 22.054688 -43.90625 24.109375 -43.90625 C 28.335938 -43.90625 31.8125 -43.257812 34.53125 -41.96875 C 37.257812 -40.6875 39.300781 -38.738281 40.65625 -36.125 C 42.007812 -33.507812 42.6875 -30.148438 42.6875 -26.046875 L 42.6875 -4.921875 C 42.6875 -3.109375 42.242188 -1.71875 41.359375 -0.75 C 40.484375 0.21875 39.222656 0.703125 37.578125 0.703125 C 35.929688 0.703125 34.65625 0.21875 33.75 -0.75 C 32.84375 -1.71875 32.390625 -3.109375 32.390625 -4.921875 L 32.390625 -9.15625 L 33.09375 -9.15625 C 32.675781 -7.101562 31.863281 -5.328125 30.65625 -3.828125 C 29.457031 -2.328125 27.945312 -1.164062 26.125 -0.34375 C 24.3125 0.46875 22.234375 0.875 19.890625 0.875 Z M 19.890625 0.875 "/></g></g><g style="fill:#1f446f;fill-opacity:1;"><g transform="translate(508.154665, 103.054183)"><path style="stroke:none" d="M 11.359375 0.703125 C 9.535156 0.703125 8.140625 0.21875 7.171875 -0.75 C 6.203125 -1.71875 5.71875 -3.109375 5.71875 -4.921875 L 5.71875 -38.1875 C 5.71875 -40.007812 6.1875 -41.390625 7.125 -42.328125 C 8.0625 -43.265625 9.382812 -43.734375 11.09375 -43.734375 C 12.789062 -43.734375 14.109375 -43.265625 15.046875 -42.328125 C 15.984375 -41.390625 16.453125 -40.007812 16.453125 -38.1875 L 16.453125 -32.640625 L 15.578125 -32.640625 C 16.398438 -36.160156 18.015625 -38.832031 20.421875 -40.65625 C 22.828125 -42.476562 26.023438 -43.5625 30.015625 -43.90625 C 31.242188 -44.03125 32.222656 -43.722656 32.953125 -42.984375 C 33.691406 -42.253906 34.117188 -41.125 34.234375 -39.59375 C 34.347656 -38.132812 34.007812 -36.945312 33.21875 -36.03125 C 32.425781 -35.125 31.238281 -34.582031 29.65625 -34.40625 L 27.71875 -34.234375 C 24.144531 -33.878906 21.445312 -32.773438 19.625 -30.921875 C 17.800781 -29.078125 16.890625 -26.484375 16.890625 -23.140625 L 16.890625 -4.921875 C 16.890625 -3.109375 16.421875 -1.71875 15.484375 -0.75 C 14.546875 0.21875 13.171875 0.703125 11.359375 0.703125 Z M 11.359375 0.703125 "/></g></g><g style="fill:#1f446f;fill-opacity:1;"><g transform="translate(545.116593, 103.054183)"><path style="stroke:none" d="M 25.4375 0.875 C 21.625 0.875 18.441406 0.234375 15.890625 -1.046875 C 13.335938 -2.335938 11.441406 -4.226562 10.203125 -6.71875 C 8.972656 -9.21875 8.359375 -12.316406 8.359375 -16.015625 L 8.359375 -34.765625 L 3.78125 -34.765625 C 2.375 -34.765625 1.289062 -35.128906 0.53125 -35.859375 C -0.226562 -36.585938 -0.609375 -37.597656 -0.609375 -38.890625 C -0.609375 -40.242188 -0.226562 -41.269531 0.53125 -41.96875 C 1.289062 -42.675781 2.375 -43.03125 3.78125 -43.03125 L 8.359375 -43.03125 L 8.359375 -51.046875 C 8.359375 -52.859375 8.84375 -54.234375 9.8125 -55.171875 C 10.78125 -56.109375 12.144531 -56.578125 13.90625 -56.578125 C 15.664062 -56.578125 17.015625 -56.109375 17.953125 -55.171875 C 18.890625 -54.234375 19.359375 -52.859375 19.359375 -51.046875 L 19.359375 -43.03125 L 28.6875 -43.03125 C 30.09375 -43.03125 31.175781 -42.675781 31.9375 -41.96875 C 32.707031 -41.269531 33.09375 -40.242188 33.09375 -38.890625 C 33.09375 -37.597656 32.707031 -36.585938 31.9375 -35.859375 C 31.175781 -35.128906 30.09375 -34.765625 28.6875 -34.765625 L 19.359375 -34.765625 L 19.359375 -16.625 C 19.359375 -13.8125 19.972656 -11.703125 21.203125 -10.296875 C 22.441406 -8.890625 24.4375 -8.1875 27.1875 -8.1875 C 28.1875 -8.1875 29.066406 -8.273438 29.828125 -8.453125 C 30.585938 -8.628906 31.265625 -8.742188 31.859375 -8.796875 C 32.554688 -8.859375 33.140625 -8.640625 33.609375 -8.140625 C 34.078125 -7.640625 34.3125 -6.628906 34.3125 -5.109375 C 34.3125 -3.929688 34.117188 -2.882812 33.734375 -1.96875 C 33.359375 -1.0625 32.675781 -0.4375 31.6875 -0.09375 C 30.914062 0.144531 29.914062 0.363281 28.6875 0.5625 C 27.457031 0.769531 26.375 0.875 25.4375 0.875 Z M 25.4375 0.875 "/></g></g><g style="fill:#1f446f;fill-opacity:1;"><g transform="translate(578.910279, 103.054183)"><path style="stroke:none" d="M 21.296875 0.875 C 17.710938 0.875 14.75 0.21875 12.40625 -1.09375 C 10.0625 -2.414062 8.316406 -4.394531 7.171875 -7.03125 C 6.023438 -9.675781 5.453125 -12.960938 5.453125 -16.890625 L 5.453125 -38.1875 C 5.453125 -40.070312 5.921875 -41.46875 6.859375 -42.375 C 7.796875 -43.28125 9.144531 -43.734375 10.90625 -43.734375 C 12.664062 -43.734375 14.03125 -43.28125 15 -42.375 C 15.96875 -41.46875 16.453125 -40.070312 16.453125 -38.1875 L 16.453125 -16.71875 C 16.453125 -13.664062 17.066406 -11.40625 18.296875 -9.9375 C 19.535156 -8.476562 21.503906 -7.75 24.203125 -7.75 C 27.128906 -7.75 29.53125 -8.757812 31.40625 -10.78125 C 33.289062 -12.800781 34.234375 -15.484375 34.234375 -18.828125 L 34.234375 -38.1875 C 34.234375 -40.070312 34.703125 -41.46875 35.640625 -42.375 C 36.578125 -43.28125 37.925781 -43.734375 39.6875 -43.734375 C 41.445312 -43.734375 42.8125 -43.28125 43.78125 -42.375 C 44.75 -41.46875 45.234375 -40.070312 45.234375 -38.1875 L 45.234375 -4.921875 C 45.234375 -1.171875 43.441406 0.703125 39.859375 0.703125 C 38.160156 0.703125 36.84375 0.21875 35.90625 -0.75 C 34.96875 -1.71875 34.5 -3.109375 34.5 -4.921875 L 34.5 -11.609375 L 35.734375 -8.96875 C 34.492188 -5.800781 32.628906 -3.367188 30.140625 -1.671875 C 27.648438 0.0234375 24.703125 0.875 21.296875 0.875 Z M 21.296875 0.875 "/></g></g><g style="fill:#1f446f;fill-opacity:1;"><g transform="translate(629.864828, 103.054183)"><path style="stroke:none" d="M 11.171875 16.546875 C 9.410156 16.546875 8.0625 16.078125 7.125 15.140625 C 6.1875 14.203125 5.71875 12.820312 5.71875 11 L 5.71875 -38.1875 C 5.71875 -40.007812 6.1875 -41.390625 7.125 -42.328125 C 8.0625 -43.265625 9.382812 -43.734375 11.09375 -43.734375 C 12.851562 -43.734375 14.203125 -43.265625 15.140625 -42.328125 C 16.078125 -41.390625 16.546875 -40.007812 16.546875 -38.1875 L 16.546875 -31.328125 L 15.578125 -33.96875 C 16.453125 -36.957031 18.253906 -39.359375 20.984375 -41.171875 C 23.710938 -42.992188 26.894531 -43.90625 30.53125 -43.90625 C 34.289062 -43.90625 37.59375 -42.992188 40.4375 -41.171875 C 43.28125 -39.359375 45.492188 -36.796875 47.078125 -33.484375 C 48.660156 -30.171875 49.453125 -26.195312 49.453125 -21.5625 C 49.453125 -16.988281 48.660156 -13.015625 47.078125 -9.640625 C 45.492188 -6.265625 43.289062 -3.664062 40.46875 -1.84375 C 37.65625 -0.03125 34.34375 0.875 30.53125 0.875 C 26.957031 0.875 23.820312 -0.015625 21.125 -1.796875 C 18.425781 -3.585938 16.601562 -5.921875 15.65625 -8.796875 L 16.71875 -8.796875 L 16.71875 11 C 16.71875 12.820312 16.234375 14.203125 15.265625 15.140625 C 14.296875 16.078125 12.929688 16.546875 11.171875 16.546875 Z M 27.453125 -7.484375 C 29.628906 -7.484375 31.535156 -8.007812 33.171875 -9.0625 C 34.816406 -10.113281 36.09375 -11.679688 37 -13.765625 C 37.914062 -15.847656 38.375 -18.445312 38.375 -21.5625 C 38.375 -26.25 37.375 -29.75 35.375 -32.0625 C 33.382812 -34.382812 30.742188 -35.546875 27.453125 -35.546875 C 25.285156 -35.546875 23.378906 -35.03125 21.734375 -34 C 20.085938 -32.976562 18.8125 -31.425781 17.90625 -29.34375 C 17 -27.257812 16.546875 -24.664062 16.546875 -21.5625 C 16.546875 -16.925781 17.539062 -13.421875 19.53125 -11.046875 C 21.53125 -8.671875 24.171875 -7.484375 27.453125 -7.484375 Z M 27.453125 -7.484375 "/></g></g><g style="fill:#1f446f;fill-opacity:1;"><g transform="translate(682.667468, 103.054183)"><path style="stroke:none" d="M 21.46875 0.875 C 18.945312 0.875 16.273438 0.609375 13.453125 0.078125 C 10.640625 -0.441406 8.117188 -1.347656 5.890625 -2.640625 C 4.953125 -3.222656 4.289062 -3.910156 3.90625 -4.703125 C 3.53125 -5.492188 3.382812 -6.285156 3.46875 -7.078125 C 3.5625 -7.867188 3.859375 -8.554688 4.359375 -9.140625 C 4.859375 -9.734375 5.503906 -10.117188 6.296875 -10.296875 C 7.085938 -10.472656 7.953125 -10.328125 8.890625 -9.859375 C 11.234375 -8.742188 13.429688 -7.960938 15.484375 -7.515625 C 17.535156 -7.078125 19.5625 -6.859375 21.5625 -6.859375 C 24.375 -6.859375 26.46875 -7.34375 27.84375 -8.3125 C 29.226562 -9.28125 29.921875 -10.554688 29.921875 -12.140625 C 29.921875 -13.492188 29.460938 -14.535156 28.546875 -15.265625 C 27.640625 -16.003906 26.28125 -16.546875 24.46875 -16.890625 L 15.65625 -18.5625 C 12.019531 -19.269531 9.25 -20.601562 7.34375 -22.5625 C 5.4375 -24.53125 4.484375 -27.070312 4.484375 -30.1875 C 4.484375 -33 5.257812 -35.429688 6.8125 -37.484375 C 8.375 -39.535156 10.53125 -41.117188 13.28125 -42.234375 C 16.039062 -43.347656 19.210938 -43.90625 22.796875 -43.90625 C 25.367188 -43.90625 27.785156 -43.625 30.046875 -43.0625 C 32.304688 -42.507812 34.492188 -41.648438 36.609375 -40.484375 C 37.484375 -40.015625 38.082031 -39.394531 38.40625 -38.625 C 38.726562 -37.863281 38.800781 -37.085938 38.625 -36.296875 C 38.457031 -35.503906 38.109375 -34.800781 37.578125 -34.1875 C 37.046875 -33.570312 36.382812 -33.191406 35.59375 -33.046875 C 34.800781 -32.898438 33.90625 -33.0625 32.90625 -33.53125 C 31.09375 -34.46875 29.347656 -35.140625 27.671875 -35.546875 C 26.003906 -35.960938 24.40625 -36.171875 22.875 -36.171875 C 20 -36.171875 17.875 -35.671875 16.5 -34.671875 C 15.125 -33.671875 14.4375 -32.351562 14.4375 -30.71875 C 14.4375 -29.476562 14.84375 -28.445312 15.65625 -27.625 C 16.476562 -26.8125 17.742188 -26.253906 19.453125 -25.953125 L 28.25 -24.28125 C 32.0625 -23.582031 34.945312 -22.289062 36.90625 -20.40625 C 38.875 -18.53125 39.859375 -16.007812 39.859375 -12.84375 C 39.859375 -8.5625 38.1875 -5.203125 34.84375 -2.765625 C 31.5 -0.335938 27.039062 0.875 21.46875 0.875 Z M 21.46875 0.875 "/></g></g></g></svg>